<svg width="32" height="32" viewBox="0 0 32 32" fill="none" xmlns="http://www.w3.org/2000/svg">
<path d="M9.3709 8.66249C10.5104 6.58907 13.4896 6.58908 14.6291 8.6625L19.9494 18.3429C21.0482 20.3423 19.6017 22.7879 17.3203 22.7879H6.6797C4.39831 22.7879 2.95178 20.3423 4.0506 18.3429L9.3709 8.66249Z" fill="url(#paint0_linear_5_27)"/>
<path d="M15.1595 7.56081C16.6087 4.52529 20.9297 4.52529 22.3789 7.5608L27.4949 18.2766C28.7624 20.9314 26.827 24 23.8852 24H13.6532C10.7115 24 8.77609 20.9314 10.0435 18.2766L15.1595 7.56081Z" fill="url(#paint1_linear_5_27)"/>
<defs>
<linearGradient id="paint0_linear_5_27" x1="12" y1="3.87878" x2="12" y2="29.0909" gradientUnits="userSpaceOnUse">
<stop stop-color="#D9D9D9"/>
<stop offset="1" stop-color="#001A6D"/>
</linearGradient>
<linearGradient id="paint1_linear_5_27" x1="18.7692" y1="0" x2="18.7692" y2="32" gradientUnits="userSpaceOnUse">
<stop offset="0.31" stop-color="#D9D9D9"/>
<stop offset="1" stop-color="#1A4FFF"/>
</linearGradient>
</defs>
</svg>
